<?xml version="1.0" encoding="UTF-8"?>
<svg width="240.12" height="224.15" enable-background="new 0 0 240.116 224.151" viewBox="0 0 240.116 224.151" xmlns="http://www.w3.org/2000/svg">
 <path d="m50.972,17.809-25.794,30.091-16.583,26.409-4.912,25.177-1.227,27.024 10.44,30.71 20.266,27.63 24.564,21.49 38.689,12.29 31.325,2.45 39.91-9.21 36.23-21.49 20.88-25.8 9.83-35.61v-36.852l-7.37-28.865-18.42-23.949-21.5-17.197-20.88-9.21-20.26-6.143-25.18-3.683-17.2-.614-24.559,4.913-28.249,10.439" fill="#26bcd6" fill-rule="evenodd"/>
 <path d="m160.28,23.952-14.12-5.528-16.58-3.071-15.36,1.23-9.82,7.369 1.23,11.667 13.51,10.44 20.26,10.44 19.65,15.967 17.81,18.423 9.22,18.421 3.07,14.13-.62,15.35-1.84,6.75 6.76,2.46 6.75-9.21 4.3-14.74v-14.12l-3.07-22.725-12.28-30.706-15.97-21.496-12.9-11.051" fill="#cceaee" fill-rule="evenodd"/>
 <path d="m53.427,20.266-4.912,7.983 .614,11.668 9.825,11.669 26.406,11.667 24.57,7.984 16.58,10.44 14.12,16.582 7.99,15.351 5.53,15.97 4.29,22.72v26.41l-4.29,17.81-7.99,12.89-14.74,9.22-20.88,1.22-33.776-6.14-27.635-12.28-20.88-19.03-16.582-26.41-9.211-38.69 4.298-31.937 8.599-27.637 15.352-20.266 22.722-17.194" fill="#26bcd6" fill-rule="evenodd"/>
 <path d="m196.52,30.706 3.68,18.424-5.52,11.052 9.82,8.599 15.96,20.265-.6,11.054 15.96,9.21-6.76-37.458-13.5-25.179-19.04-15.967" fill="#ededed" fill-rule="evenodd"/>
 <path d="m9.825,156.6 17.195-21.49 .615,23.95 9.21,2.46 .614,28.24-17.809-15.96-9.825-17.2" fill="#54b948" fill-rule="evenodd"/>
 <path d="m214.94,175.02 .62-15.35-6.15-11.67-10.43-11.05 2.45-28.87 16.58-6.14 15.35.62 1.23,23.95-6.14,27.63-13.51,20.88" fill="#54b948" fill-rule="evenodd"/>
 <path d="m94.573 217.4 19.647-7.99 20.27-1.84 27.02-3.69-3.69 10.45-24.56 5.52-22.11 1.85-16.577-4.3" fill="#cceaee" fill-rule="evenodd"/>
 <path d="m10.439 74.309 9.211 7.368-4.297 20.263-12.897 8.6 7.983-36.231" fill="#54b948" fill-rule="evenodd"/>
 <path d="m120.98,200.2-4.91-22.72 1.23-14.13-18.428-13.51 3.068-13.5 3.07-11.68 19.04-9.2 22.11-7.38 14.12,1.23 18.42,7.37 .62,15.97-3.68,28.25-12.9,4.29h-6.14l-13.51,7.38-5.53,11.66-2.46,9.21-12.28,11.06-1.84-4.3" fill="#54b948" fill-rule="evenodd"/>
 <path d="m67.551 97.03 8.599 9.83 4.912 4.91 27.018 12.28 9.22-4.29-3.69-3.08 1.84-12.28-7.98-4.3-7.983 8.6-8.599-4.92 2.456-10.433-25.793 3.683" fill="#54b948" fill-rule="evenodd"/>
 <path d="m87.205 13.512 19.035-1.845 7.37 1.845-3.68 7.368-11.673-3.071h-7.369l-3.683-4.297" fill="#54b948" fill-rule="evenodd"/>
 <path d="m88.432 24.563-16.581 6.757-4.3 9.826-16.579 19.036 1.226 11.055-1.226 12.897 5.527 15.352 7.369 12.894 2.456-14.735 9.826 11.055 15.967-12.897 15.963-9.213 9.83-2.456 5.53 14.738 5.52-14.738 6.76-3.684 9.82-11.055 15.97-15.967-3.69-8.599-22.72 15.353 7.99-14.738 15.35-13.508-13.51-9.214-12.28 4.298-11.67 13.511v14.739l-4.91 1.229-4.3-8.599h-12.283l-1.23-6.754 2.453-11.67-2.453-3.683-9.825-1.23" fill="#49a942" fill-rule="evenodd"/>
 <path d="m120.37,1.842-17.81-1.842-18.427,3.071-17.194,4.913-11.055,5.528-11.055,7.368-11.053,9.211-11.669,14.738-6.754,9.828-6.758,13.509-4.912,12.284-3.068,16.58-.615,15.35 1.841,19.04 4.913,16.58 6.142,16.58 7.984,12.9 10.44,12.28 11.667,10.44 14.739,9.21 15.352,6.15 17.197,4.91 18.425,3.07 17.2.61 17.8-1.84 20.88-5.53 13.52-4.91 16.58-11.05 14.73-12.29 7.99-10.44 9.82-16.57 3.69-13.52 .61-8.6-3.07-5.52-1.23,9.21-2.46,9.82-6.75,10.44-.61-7.36-4.3,1.23 .61,6.75 .62,7.37-9.83,9.21-6.14,7.98-11.06,7.37-11.05,6.76-8.6,5.52-17.19,4.3-18.42,2.46-17.2.62-17.195-1.23-13.512-4.92-19.038-6.13-12.282-7.99-10.441-9.22-14.737-12.27-9.212-14.74-5.527-11.67-4.301-13.51-1.841-11.67-.615-9.83 1.844-13.508 2.456-12.897 5.528-15.353 9.211-17.809 9.211-11.667 9.213-11.055 12.897-10.44 15.352-6.754 13.509-4.913 19.04-3.071 15.97-3.071" fill-rule="evenodd"/>
 <path d="m138.79,3.686 20.88,5.525 14.74,5.528 14.74,6.756 12.89,9.211 17.82,17.81 9.2,15.967 5.53,12.282 3.69,13.511 1.84,14.124-1.23,15.96-3.68,17.2-1.85-10.44-3.07-11.05 .62-11.67-1.23-17.81-3.69-11.667-5.53-11.67-6.13-10.44-7.99-7.984-15.97-14.738-13.51-8.596-14.74-5.528-16.58-6.756-6.75-5.525" fill-rule="evenodd"/>
 <path d="m12.896 68.781 12.282-11.055 7.984-4.298 12.282-6.755 14.737-7.369 6.758-1.229v2.456l-11.055 5.528-14.739 7.984-14.125 9.825-17.195 11.055 3.071-6.142" fill-rule="evenodd"/>
 <path d="m4.912,111.16 3.683-5.53 5.528-1.85 4.3-1.22 .613-3.074 1.229-9.21 2.457-7.984-.615-3.686-11.055-5.527-2.457,6.142 6.758,1.842v5.527l-1.842,6.142-1.229,6.14-3.072,3.068-5.527,1.23 1.229,7.99" fill-rule="evenodd"/>
 <path d="m4.912,130.19 9.826-10.43 12.282-11.68 12.897-9.208 12.281-6.754 12.897-5.528 14.126-4.298-36.849,22.108-11.052,7.98-7.984,5.53-9.213,8.6-8.596,8.6-.615-4.92" fill-rule="evenodd"/>
 <path d="m11.667,154.14 7.369-13.5 7.984-7.99 4.3,2.46-1.844,22.72h6.142l3.684,3.07 1.23,6.75 .613,9.83 9.827-10.44 11.054-7.98 12.282-6.15 12.897-6.75 17.195-6.76 15.97-1.84h11.05l-4.3,3.68-21.49,4.92-14.128,4.91-11.667,6.15-12.284,6.13-11.667,7.99-12.282,11.06-1.23,9.2-6.754-6.14v-17.81l-.615-3.07-4.298-2.46h-4.3l-1.842-3.06 .615-16.58-3.686,5.52-1.842,4.91-4.297,6.76-3.686-5.53" fill-rule="evenodd"/>
 <path d="m43.602,66.325-3.07,7.984-1.843,12.281-1.23,15.35 1.843,14.74 1.843,13.51 2.457,12.29 4.297,11.05 5.528,15.35 6.754,11.06 7.985,9.82 11.669,11.06 20.265,17.81 15.97,1.84-7.37-7.37 7.98-2.46 14.13-1.84 4.29,1.84h6.15l5.52-2.46 9.83-1.23v6.15l9.82-6.76 12.28-9.82 10.45-10.45 7.37-7.98 5.52-11.05-4.91.61-3.07,4.3-6.14,6.76-4.92,7.98-12.89,10.44-9.21,6.15h-10.44l-7.37,1.22-4.92,1.23 3.08-5.53 4.29-10.44-3.68,2.46-4.92,7.37-3.06,4.29-14.13,3.07-7.37,1.85h-7.37l-7.365-3.07-7.37-4.91-9.213-8.6-7.984-8.6-7.983-9.82-6.141-9.22-5.527-11.67-3.686-11.05-3.069-9.83-1.843-12.27-1.227-14.75-1.23-15.964 1.845-11.052 .612-6.757-1.227-4.912" fill-rule="evenodd"/>
 <path d="m86.59,4.298-11.055,7.984-7.369,6.757-12.282,14.737-6.143,14.74 6.758-4.299 6.139-9.825 7.985-9.829 6.756-7.369 7.369-6.139 8.596-6.142-6.754-.615" fill-rule="evenodd"/>
 <path d="m108.08,6.143 9.83,5.524 7.37,5.527 6.14,5.528 6.75,9.214 7.37,14.123 4.3,13.511 5.53,14.739 3.07,19.038v25.173l-.62,19.66-1.84,11.05-1.83,12.29-4.31,12.89-4.3,11.66 4.92-3.67 5.52-12.29 4.92-17.2 2.45-20.26 1.23-14.13-1.84-20.875-1.23-18.424-3.69-13.511-4.29-12.897-7.37-17.194-5.53-10.44-8.59-9.212-8.6-5.527-5.53-4.913-9.83.616" fill-rule="evenodd"/>
 <path d="m96.415,76.149 17.805-4.912 17.82-2.456 13.5-.615 14.13-1.227 17.81,2.456 13.51,3.071 23.95,7.984 8.59,5.525 12.9,11.055-1.84,14.13-6.75-3.69-2.46-4.91 2.46-3.074-3.69-4.912-10.44-7.984-9.83-3.683-14.12-4.913-14.74-3.071-12.28-1.23-14.12-1.227-14.74.613-14.74,2.456-10.44,1.845-14.741,3.683 2.456-4.914" fill-rule="evenodd"/>
 <path d="m121.59,115.46 11.06-4.3 9.21-3.69 14.12-.61-1.83,4.3h-9.83l-9.22,3.07-12.28,6.13-1.23-4.9" fill-rule="evenodd"/>
 <path d="m145.54,139.4 14.13-1.84 17.81,1.23 10.44,3.07 9.21,4.3 11.05,11.06 3.08,6.13 2.45,15.36-15.96,13.51 4.91-11.05 1.84-9.22-.62-9.83-4.3-7.36-6.75-4.3-8.6-3.69-8.59-1.84-10.44-2.45h-12.9l-6.76.61v-3.69" fill-rule="evenodd"/>
 <path d="m169.5,108.7 3.07,3.68h7.98l3.07,4.3-.62,11.67-2.45,14.13-1.23,12.28-1.84,7.36-7.37,3.69h-14.74l.61-3.69 6.76,1.23 7.37-3.06 4.3-4.92 1.23-12.28 2.46-16.58-.62-8.6-4.3-1.23-4.3-1.84 .62-6.14" fill-rule="evenodd"/>
 <path d="m119.14,193.44 .61,9.22 3.07,1.84 6.76-4.91 8.59-5.53 3.69-5.53-.61-5.52 3.07-5.53 4.91-6.14-3.07-4.3-4.3,5.53-3.69,4.3-2.45,5.53-.62,6.13-1.84,3.69-4.91,3.68-3.69,3.07-2.45-7.37-3.07,1.84" fill-rule="evenodd"/>
 <path d="m198.36,35.003 4.91,11.056 6.14,9.211 5.53,9.828 2.46,6.139 10.44-1.842 .61,4.298-8.59,2.456 1.22,11.67 1.23,15.961-1.23,14.74-1.84,9.83-5.53,15.35v-6.14l3.07-19.04 .62-15.35v-11.667l-3.07-12.897-2.46-9.825-4.3-8.599-5.53-7.369-4.91,6.757 4.91,5.528 4.92,3.068-.62,3.071-4.91-.615-7.37-5.524-3.69-4.916 3.69-5.525 4.3-6.141-3.07-7.985-4.3-4.298-10.44-5.527-16.58-4.298-25.8-1.229h-25.17l-16.585,3.07-6.754,1.842-3.071-2.456 9.21-2.456 20.88-3.684 16.58-1.844 23.34,1.229 17.81,3.683 19.04,3.072 4.91,7.368" fill-rule="evenodd"/>
 <path d="m79.835,113 18.422,6.76 6.753,2.45-4.3,9.82-4.91,13.51-1.227,5.53 4.299,3.69 9.828,5.53 6.14,3.06v16.59l3.07,7.36 1.23-6.13-.62-9.22 1.85-5.53-1.23-6.13-6.76-3.07-5.52-4.31-6.76-3.68 3.68-15.35 6.15-7.37-1.85-6.15-9.208-5.52-9.827-3.68-4.912-2.46-4.298,4.3" fill-rule="evenodd"/>
 <path d="m76.764,106.86-1.229-4.92-3.072-6.137-3.682-3.071-6.755,1.842-2.457,6.756-1.843-2.458-3.684.614v2.454l5.527,7.37 4.299,4.92 4.298-1.23-1.227-4.3-1.844-5.53-.613-4.298 3.069-1.227 2.457,4.915 3.685,5.52 3.071,1.85v-3.07" fill-rule="evenodd"/>
 <path d="m75.535,37.46-7.369,8.599-7.37,5.527-6.754,10.44 2.457,3.072v5.524l-1.845,5.527-1.227,7.37 .615,11.67-4.301-4.913-2.455-9.213 2.455-9.211 .615-4.913-1.841-3.686 1.841-5.527 5.528-6.754 9.211-7.984 9.828-8.596 .612,3.068" fill-rule="evenodd"/>
 <path d="m69.396,30.091 7.983-4.298 7.981-3.071 5.528.615-3.071,2.456-7.369,3.071-6.14,1.227-4.912,4.912v-4.912" fill-rule="evenodd"/>
 <path d="m98.257,30.091 .615,3.685-1.842,4.299-.615,4.913 1.23,4.301 3.065,3.067 5.53.616 4.3-.616 1.84,6.143 5.53,2.456 4.3-2.456 1.84-5.527 .61-9.211 6.15-7.369-.62-6.757-4.29,2.456-2.46,4.912-5.53,6.143 1.23,6.143-.62,6.139-2.45-1.842-1.23-5.527-4.91-3.071-3.69,3.071-3.68-1.842-.62-5.527 3.69-8.599-3.07-1.842-4.303,1.842" fill-rule="evenodd"/>
 <path d="m148,23.337 7.98,4.912 6.76,1.842-.62,4.301-9.82,7.369-12.9,12.282 19.04-11.055 3.68,2.456 1.85,10.44-4.3,3.071-4.91,1.227-7.37,8.599-5.53,7.984-3.69,5.527-5.52,3.683-4.3.615 .61,5.528-1.84,6.754-4.3,1.228-2.45-2.455-1.85-4.298-.61-4.301-3.69-2.456-6.75,2.456-6.76,4.301-1.223-4.301 9.213-5.527 7.98-2.456 4.91,1.229v5.527l1.85,6.755 1.22-5.528 1.85-5.527 7.37-2.456 7.37-6.754 4.29-7.37 8.61-9.213 1.83-4.913-.61-4.297-6.14,4.297-8.6,5.527-5.53,4.301-3.68-4.301 7.98-9.824 6.76-7.37 9.21-6.754-6.14-4.916-5.53-6.139h4.3" fill-rule="evenodd"/>
 <path d="m219.86,97.03-21.5,9.83 1.22,9.82-1.83,10.44-1.23,6.76-1.23,5.52 6.14,4.3 9.21,6.76 3.69-.62-2.46-3.68-4.91-5.52-5.53-3.08 1.84-12.28 2.46-11.05 1.23-4.92 7.37-4.91 5.53-1.23v-6.14" fill-rule="evenodd"/>
 <path d="m93.959,91.503-3.684,6.142v6.755l4.913,4.3 6.142,2.46 4.3-3.69 1.84-3.69 4.91,3.08-4.3,2.45-.61,4.3 2.46,3.07 7.37,4.3 1.22-3.68-3.07-2.46-.61-2.46 2.46-3.07 .61-3.07-2.46-4.91-4.3-3.071-4.91.613-3.68,4.908-3.073,1.85-4.914-2.46 .615-4.298 2.457-4.298-3.686-3.071" fill-rule="evenodd"/>
 <path d="m87.205,12.282 14.125-1.842 7.37-1.229 6.14,3.071-4.3,12.281-4.3-3.683-8.595-1.229-7.37-1.842 4.913-1.842 7.982.616 4.3,1.226 3.07-3.685-6.76-.612h-6.135l-11.055,2.455 .615-3.685" fill-rule="evenodd"/>
 <path d="m50.972,17.809-25.794,30.091-16.583,26.409-4.912,25.177-1.227,27.024 10.44,30.71 20.266,27.63 24.564,21.49 38.689,12.29 31.325,2.45 39.91-9.21 36.23-21.49 20.88-25.8 9.83-35.61v-36.852l-7.37-28.865-18.42-23.949-21.5-17.197-20.88-9.21-20.26-6.143-25.18-3.683-17.2-.614-24.559,4.913-28.249,10.439" fill="#7ed0e0" fill-rule="evenodd"/>
 <path d="m160.28,23.952-14.12-5.528-16.58-3.071-15.36,1.23-9.82,7.369 1.23,11.667 13.51,10.44 20.26,10.44 19.65,15.967 17.81,18.423 9.22,18.421 3.07,14.13-.62,15.35-1.84,6.75 6.76,2.46 6.75-9.21 4.3-14.74v-14.12l-3.07-22.725-12.28-30.706-15.97-21.496-12.9-11.051" fill="#cceaee" fill-rule="evenodd"/>
 <path d="m53.427,20.266-4.912,7.983 .614,11.668 9.825,11.669 26.406,11.667 24.57,7.984 16.58,10.44 14.12,16.582 7.99,15.351 5.53,15.97 4.29,22.72v26.41l-4.29,17.81-7.99,12.89-14.74,9.22-20.88,1.22-33.776-6.14-27.635-12.28-20.88-19.03-16.582-26.41-9.211-38.69 4.298-31.937 8.599-27.637 15.352-20.266 22.722-17.194" fill="#26bcd6" fill-rule="evenodd"/>
 <path d="m196.52,30.706 3.68,18.424-5.52,11.052 9.82,8.599 15.96,20.265-.6,11.054 15.96,9.21-6.76-37.458-13.5-25.179-19.04-15.967" fill="#73c167" fill-rule="evenodd"/>
 <path d="m9.825,156.6 17.195-21.49 .615,23.95 9.21,2.46 .614,28.24-17.809-15.96-9.825-17.2" fill="#54b948" fill-rule="evenodd"/>
 <path d="m214.94,175.02 .62-15.35-6.15-11.67-10.43-11.05 2.45-28.87 16.58-6.14 15.35.62 1.23,23.95-6.14,27.63-13.51,20.88" fill="#54b948" fill-rule="evenodd"/>
 <path d="m94.573 217.4 19.647-7.99 20.27-1.84 27.02-3.69-3.69 10.45-24.56 5.52-22.11 1.85-16.577-4.3" fill="#fff" fill-rule="evenodd"/>
 <path d="m10.439 74.309 9.211 7.368-4.297 20.263-12.897 8.6 7.983-36.231" fill="#54b948" fill-rule="evenodd"/>
 <path d="m120.98,200.2-4.91-22.72 1.23-14.13-18.428-13.51 3.068-13.5 3.07-11.68 19.04-9.2 22.11-7.38 14.12,1.23 18.42,7.37 .62,15.97-3.68,28.25-12.9,4.29h-6.14l-13.51,7.38-5.53,11.66-2.46,9.21-12.28,11.06-1.84-4.3" fill="#54b948" fill-rule="evenodd"/>
 <path d="m67.551 97.03 8.599 9.83 4.912 4.91 27.018 12.28 9.22-4.29-3.69-3.08 1.84-12.28-7.98-4.3-7.983 8.6-8.599-4.92 2.456-10.433-25.793 3.683" fill="#54b948" fill-rule="evenodd"/>
 <path d="m87.205 13.512 19.035-1.845 7.37 1.845-3.68 7.368-11.673-3.071h-7.369l-3.683-4.297" fill="#54b948" fill-rule="evenodd"/>
 <path d="m88.432 24.563-16.581 6.757-4.3 9.826-16.579 19.036 1.226 11.055-1.226 12.897 5.527 15.352 7.369 12.894 2.456-14.735 9.826 11.055 15.967-12.897 15.963-9.213 9.83-2.456 5.53 14.738 5.52-14.738 6.76-3.684 9.82-11.055 15.97-15.967-3.69-8.599-22.72 15.353 7.99-14.738 15.35-13.508-13.51-9.214-12.28 4.298-11.67 13.511v14.739l-4.91 1.229-4.3-8.599h-12.283l-1.23-6.754 2.453-11.67-2.453-3.683-9.825-1.23" fill="#49a942" fill-rule="evenodd"/>
 <path d="m120.37,1.842-17.81-1.842-18.427,3.071-17.194,4.913-11.055,5.528-11.055,7.368-11.053,9.211-11.669,14.738-6.754,9.828-6.758,13.509-4.912,12.284-3.068,16.58-.615,15.35 1.841,19.04 4.913,16.58 6.142,16.58 7.984,12.9 10.44,12.28 11.667,10.44 14.739,9.21 15.352,6.15 17.197,4.91 18.425,3.07 17.2.61 17.8-1.84 20.88-5.53 13.52-4.91 16.58-11.05 14.73-12.29 7.99-10.44 9.82-16.57 3.69-13.52 .61-8.6-3.07-5.52-1.23,9.21-2.46,9.82-6.75,10.44-.61-7.36-4.3,1.23 .61,6.75 .62,7.37-9.83,9.21-6.14,7.98-11.06,7.37-11.05,6.76-8.6,5.52-17.19,4.3-18.42,2.46-17.2.62-17.195-1.23-13.512-4.92-19.038-6.13-12.282-7.99-10.441-9.22-14.737-12.27-9.212-14.74-5.527-11.67-4.301-13.51-1.841-11.67-.615-9.83 1.844-13.508 2.456-12.897 5.528-15.353 9.211-17.809 9.211-11.667 9.213-11.055 12.897-10.44 15.352-6.754 13.509-4.913 19.04-3.071 15.97-3.071" fill-rule="evenodd"/>
 <path d="m138.79,3.686 20.88,5.525 14.74,5.528 14.74,6.756 12.89,9.211 17.82,17.81 9.2,15.967 5.53,12.282 3.69,13.511 1.84,14.124-1.23,15.96-3.68,17.2-1.85-10.44-3.07-11.05 .62-11.67-1.23-17.81-3.69-11.667-5.53-11.67-6.13-10.44-7.99-7.984-15.97-14.738-13.51-8.596-14.74-5.528-16.58-6.756-6.75-5.525" fill-rule="evenodd"/>
 <path d="m12.896 68.781 12.282-11.055 7.984-4.298 12.282-6.755 14.737-7.369 6.758-1.229v2.456l-11.055 5.528-14.739 7.984-14.125 9.825-17.195 11.055 3.071-6.142" fill-rule="evenodd"/>
 <path d="m4.912,111.16 3.683-5.53 5.528-1.85 4.3-1.22 .613-3.074 1.229-9.21 2.457-7.984-.615-3.686-11.055-5.527-2.457,6.142 6.758,1.842v5.527l-1.842,6.142-1.229,6.14-3.072,3.068-5.527,1.23 1.229,7.99" fill-rule="evenodd"/>
 <path d="m4.912,130.19 9.826-10.43 12.282-11.68 12.897-9.208 12.281-6.754 12.897-5.528 14.126-4.298-36.849,22.108-11.052,7.98-7.984,5.53-9.213,8.6-8.596,8.6-.615-4.92" fill-rule="evenodd"/>
 <path d="m11.667,154.14 7.369-13.5 7.984-7.99 4.3,2.46-1.844,22.72h6.142l3.684,3.07 1.23,6.75 .613,9.83 9.827-10.44 11.054-7.98 12.282-6.15 12.897-6.75 17.195-6.76 15.97-1.84h11.05l-4.3,3.68-21.49,4.92-14.128,4.91-11.667,6.15-12.284,6.13-11.667,7.99-12.282,11.06-1.23,9.2-6.754-6.14v-17.81l-.615-3.07-4.298-2.46h-4.3l-1.842-3.06 .615-16.58-3.686,5.52-1.842,4.91-4.297,6.76-3.686-5.53" fill-rule="evenodd"/>
 <path d="m43.602,66.325-3.07,7.984-1.843,12.281-1.23,15.35 1.843,14.74 1.843,13.51 2.457,12.29 4.297,11.05 5.528,15.35 6.754,11.06 7.985,9.82 11.669,11.06 20.265,17.81 15.97,1.84-7.37-7.37 7.98-2.46 14.13-1.84 4.29,1.84h6.15l5.52-2.46 9.83-1.23v6.15l9.82-6.76 12.28-9.82 10.45-10.45 7.37-7.98 5.52-11.05-4.91.61-3.07,4.3-6.14,6.76-4.92,7.98-12.89,10.44-9.21,6.15h-10.44l-7.37,1.22-4.92,1.23 3.08-5.53 4.29-10.44-3.68,2.46-4.92,7.37-3.06,4.29-14.13,3.07-7.37,1.85h-7.37l-7.365-3.07-7.37-4.91-9.213-8.6-7.984-8.6-7.983-9.82-6.141-9.22-5.527-11.67-3.686-11.05-3.069-9.83-1.843-12.27-1.227-14.75-1.23-15.964 1.845-11.052 .612-6.757-1.227-4.912" fill-rule="evenodd"/>
 <path d="m86.59,4.298-11.055,7.984-7.369,6.757-12.282,14.737-6.143,14.74 6.758-4.299 6.139-9.825 7.985-9.829 6.756-7.369 7.369-6.139 8.596-6.142-6.754-.615" fill-rule="evenodd"/>
 <path d="m108.08,6.143 9.83,5.524 7.37,5.527 6.14,5.528 6.75,9.214 7.37,14.123 4.3,13.511 5.53,14.739 3.07,19.038v25.173l-.62,19.66-1.84,11.05-1.83,12.29-4.31,12.89-4.3,11.66 4.92-3.67 5.52-12.29 4.92-17.2 2.45-20.26 1.23-14.13-1.84-20.875-1.23-18.424-3.69-13.511-4.29-12.897-7.37-17.194-5.53-10.44-8.59-9.212-8.6-5.527-5.53-4.913-9.83.616" fill-rule="evenodd"/>
 <path d="m96.415,76.149 17.805-4.912 17.82-2.456 13.5-.615 14.13-1.227 17.81,2.456 13.51,3.071 23.95,7.984 8.59,5.525 12.9,11.055-1.84,14.13-6.75-3.69-2.46-4.91 2.46-3.074-3.69-4.912-10.44-7.984-9.83-3.683-14.12-4.913-14.74-3.071-12.28-1.23-14.12-1.227-14.74.613-14.74,2.456-10.44,1.845-14.741,3.683 2.456-4.914" fill-rule="evenodd"/>
 <path d="m121.59,115.46 11.06-4.3 9.21-3.69 14.12-.61-1.83,4.3h-9.83l-9.22,3.07-12.28,6.13-1.23-4.9" fill-rule="evenodd"/>
 <path d="m145.54,139.4 14.13-1.84 17.81,1.23 10.44,3.07 9.21,4.3 11.05,11.06 3.08,6.13 2.45,15.36-15.96,13.51 4.91-11.05 1.84-9.22-.62-9.83-4.3-7.36-6.75-4.3-8.6-3.69-8.59-1.84-10.44-2.45h-12.9l-6.76.61v-3.69" fill-rule="evenodd"/>
 <path d="m169.5,108.7 3.07,3.68h7.98l3.07,4.3-.62,11.67-2.45,14.13-1.23,12.28-1.84,7.36-7.37,3.69h-14.74l.61-3.69 6.76,1.23 7.37-3.06 4.3-4.92 1.23-12.28 2.46-16.58-.62-8.6-4.3-1.23-4.3-1.84 .62-6.14" fill-rule="evenodd"/>
 <path d="m119.14,193.44 .61,9.22 3.07,1.84 6.76-4.91 8.59-5.53 3.69-5.53-.61-5.52 3.07-5.53 4.91-6.14-3.07-4.3-4.3,5.53-3.69,4.3-2.45,5.53-.62,6.13-1.84,3.69-4.91,3.68-3.69,3.07-2.45-7.37-3.07,1.84" fill-rule="evenodd"/>
 <path d="m198.36,35.003 4.91,11.056 6.14,9.211 5.53,9.828 2.46,6.139 10.44-1.842 .61,4.298-8.59,2.456 1.22,11.67 1.23,15.961-1.23,14.74-1.84,9.83-5.53,15.35v-6.14l3.07-19.04 .62-15.35v-11.667l-3.07-12.897-2.46-9.825-4.3-8.599-5.53-7.369-4.91,6.757 4.91,5.528 4.92,3.068-.62,3.071-4.91-.615-7.37-5.524-3.69-4.916 3.69-5.525 4.3-6.141-3.07-7.985-4.3-4.298-10.44-5.527-16.58-4.298-25.8-1.229h-25.17l-16.585,3.07-6.754,1.842-3.071-2.456 9.21-2.456 20.88-3.684 16.58-1.844 23.34,1.229 17.81,3.683 19.04,3.072 4.91,7.368" fill-rule="evenodd"/>
 <path d="m79.835,113 18.422,6.76 6.753,2.45-4.3,9.82-4.91,13.51-1.227,5.53 4.299,3.69 9.828,5.53 6.14,3.06v16.59l3.07,7.36 1.23-6.13-.62-9.22 1.85-5.53-1.23-6.13-6.76-3.07-5.52-4.31-6.76-3.68 3.68-15.35 6.15-7.37-1.85-6.15-9.208-5.52-9.827-3.68-4.912-2.46-4.298,4.3" fill-rule="evenodd"/>
 <path d="m76.764,106.86-1.229-4.92-3.072-6.137-3.682-3.071-6.755,1.842-2.457,6.756-1.843-2.458-3.684.614v2.454l5.527,7.37 4.299,4.92 4.298-1.23-1.227-4.3-1.844-5.53-.613-4.298 3.069-1.227 2.457,4.915 3.685,5.52 3.071,1.85v-3.07" fill-rule="evenodd"/>
 <path d="m75.535,37.46-7.369,8.599-7.37,5.527-6.754,10.44 2.457,3.072v5.524l-1.845,5.527-1.227,7.37 .615,11.67-4.301-4.913-2.455-9.213 2.455-9.211 .615-4.913-1.841-3.686 1.841-5.527 5.528-6.754 9.211-7.984 9.828-8.596 .612,3.068" fill-rule="evenodd"/>
 <path d="m69.396,30.091 7.983-4.298 7.981-3.071 5.528.615-3.071,2.456-7.369,3.071-6.14,1.227-4.912,4.912v-4.912" fill-rule="evenodd"/>
 <path d="m98.257,30.091 .615,3.685-1.842,4.299-.615,4.913 1.23,4.301 3.065,3.067 5.53.616 4.3-.616 1.84,6.143 5.53,2.456 4.3-2.456 1.84-5.527 .61-9.211 6.15-7.369-.62-6.757-4.29,2.456-2.46,4.912-5.53,6.143 1.23,6.143-.62,6.139-2.45-1.842-1.23-5.527-4.91-3.071-3.69,3.071-3.68-1.842-.62-5.527 3.69-8.599-3.07-1.842-4.303,1.842" fill-rule="evenodd"/>
 <path d="m148,23.337 7.98,4.912 6.76,1.842-.62,4.301-9.82,7.369-12.9,12.282 19.04-11.055 3.68,2.456 1.85,10.44-4.3,3.071-4.91,1.227-7.37,8.599-5.53,7.984-3.69,5.527-5.52,3.683-4.3.615 .61,5.528-1.84,6.754-4.3,1.228-2.45-2.455-1.85-4.298-.61-4.301-3.69-2.456-6.75,2.456-6.76,4.301-1.223-4.301 9.213-5.527 7.98-2.456 4.91,1.229v5.527l1.85,6.755 1.22-5.528 1.85-5.527 7.37-2.456 7.37-6.754 4.29-7.37 8.61-9.213 1.83-4.913-.61-4.297-6.14,4.297-8.6,5.527-5.53,4.301-3.68-4.301 7.98-9.824 6.76-7.37 9.21-6.754-6.14-4.916-5.53-6.139h4.3" fill-rule="evenodd"/>
 <path d="m219.86,97.03-21.5,9.83 1.22,9.82-1.83,10.44-1.23,6.76-1.23,5.52 6.14,4.3 9.21,6.76 3.69-.62-2.46-3.68-4.91-5.52-5.53-3.08 1.84-12.28 2.46-11.05 1.23-4.92 7.37-4.91 5.53-1.23v-6.14" fill-rule="evenodd"/>
 <path d="m93.959,91.503-3.684,6.142v6.755l4.913,4.3 6.142,2.46 4.3-3.69 1.84-3.69 4.91,3.08-4.3,2.45-.61,4.3 2.46,3.07 7.37,4.3 1.22-3.68-3.07-2.46-.61-2.46 2.46-3.07 .61-3.07-2.46-4.91-4.3-3.071-4.91.613-3.68,4.908-3.073,1.85-4.914-2.46 .615-4.298 2.457-4.298-3.686-3.071" fill-rule="evenodd"/>
 <path d="m87.205,12.282 14.125-1.842 7.37-1.229 6.14,3.071-4.3,12.281-4.3-3.683-8.595-1.229-7.37-1.842 4.913-1.842 7.982.616 4.3,1.226 3.07-3.685-6.76-.612h-6.135l-11.055,2.455 .615-3.685" fill-rule="evenodd"/>
</svg>
